<?xml version="1.0" encoding="utf-8"?>
<!-- Generator: Adobe Illustrator 18.1.1, SVG Export Plug-In . SVG Version: 6.00 Build 0)  -->
<svg version="1.1" id="Layer" xmlns="http://www.w3.org/2000/svg" xmlns:xlink="http://www.w3.org/1999/xlink" x="0px" y="0px"
	 viewBox="0 0 285 285" enable-background="new 0 0 285 285" xml:space="preserve">
<g>
	<path d="M31.8,250.2l0-0.3c0.1-0.9,0.2-1.8,0.8-3.9c0.5-1.7,1.5-3,2.9-4.1c-0.9-2.8-0.9-6.1,0.2-9.5c-8.3,3.1-15.7,6.1-21.6,8.6
		c-1.3,0.6-2.4,1.6-2.9,2.9c-1.8,4.1-3.8,12.6,10.4,12.6"/>
	<path d="M93.6,139.8c-11.1,4.2-21.3,9.1-28.2,12.6c-1.3,0.7-2.3,1.7-3.1,2.9l-10.5,18.1c-0.9,1.6,0.7,3.5,2.4,2.7
		c9-3.8,19.3-7.7,30-11.1C82.3,154.5,87.4,145.4,93.6,139.8z"/>
	<path d="M181.9,129.6c6.4,2,14.6,4.1,19.4,4.1c0.5,0,1,0,1.3-0.1c1.1-0.1,2-0.2,2.9-0.2c4.9,0,6.6,2.6,7.2,4.1
		c0.4,1,0.5,1.9,0.4,2.8c2.8-2.6,5.6-5.8,8.4-9.6c1.7-2.4,1.8-5.5,0.3-8l-4.8-8.2c-1-1.7-3.3-2-4.8-0.7c-5.6,5-11.7,9.5-17.4,12
		C190.6,127.7,186.3,128.9,181.9,129.6z"/>
	<path d="M73,221.2c0.8-0.4,2.2-1.2,4.4-2.4c0.1-0.1,0.3-0.2,0.4-0.2c-2.4,0.7-4.9,1.4-7.3,2.1c0.1,0,0.2,0.1,0.3,0.1
		C71.2,220.9,72.1,221.1,73,221.2z"/>
	<path d="M88.1,215.8c2.9-0.3,5.5-0.4,7.1-0.4c2.3,0,4.7,0.1,6.7,0.4c5.9,0.7,10,2.4,12.5,3.4c0.3,0.1,0.6,0.2,0.8,0.3h0.3
		c2-2.6,5.7-4,8.1-4.7c0.8-0.6,1.9-1.4,3.6-2.4c0.3-0.5,0.6-0.9,0.9-1.4C117.9,209.9,103.6,212.1,88.1,215.8z"/>
	<path d="M128.2,195.4c-0.8-2.2-1.4-4.7-1.9-7l-2-1.5c-0.5,0.1-1.1,0.2-1.6,0.2c-1.1,0-2-0.2-2.8-0.6c-0.2,0-0.4,0.1-0.6,0.2
		c-1.3,0.3-2.7,0.4-3.9,0.1c-1.3,0.7-2.7,1-3.9,1c-0.5,0-1-0.1-1.4-0.2c-1.5-0.3-2.6-0.9-4.4-3.7c-4.3,3.4-5.7,3.4-6.8,3.4
		c-1,0-2-0.3-2.9-0.8c-1.6-1-2.5-2.6-2.8-4.7c-1.1-0.7-2.2-1.8-3.2-3.1c-19.2,6-38.2,14.2-51.3,20.6c-1.5,0.7-2.7,1.8-3.5,3.2
		l-7.5,13c-0.8,1.4,0.6,3.1,2.1,2.5C58.1,207.2,101.4,193.2,128.2,195.4z"/>
	<path d="M153.5,117.5l-3.4-9l4.7-1.8c0,0,2.4-0.9,4.8-2.1c1.4-0.7,2.9-1,4.5-1c3.1,0,5.7,1.3,6.2,1.5l2.1,1.1l2,10.8
		c5.5-0.5,10.3-1.5,15.1-3.6c4.7-2,10-6.2,15.2-10.9c2-1.8,2.5-4.8,1.1-7.2l-38.2-64.8c-7.5-12.8-26-12.7-33.4,0.1l-55.1,95.4
		c-1.2,2.1,0.9,4.5,3.1,3.6c14.3-5.9,31-11.3,45.5-12C137.6,117.3,146.1,117.4,153.5,117.5z M173,74.2l3.6,11.2h11.8l-9.6,6.9
		l3.6,11.2l-9.6-6.9l-9.6,6.9l3.6-11.2l-9.6-6.9h11.8L173,74.2z M148,41.7l3.6-11.2l3.6,11.2h11.8l-9.6,6.9l3.6,11.2l-9.6-6.9
		l-9.6,6.9l3.6-11.2l-9.6-6.9H148z M116,103.6l3.6-11.2l-9.6-6.9H122l3.6-11.2l3.6,11.2h11.8l-9.6,6.9l3.6,11.2l-9.6-6.9L116,103.6z
		"/>
	<path d="M128.3,131.2c-5.7,0.3-12,1.5-18.3,3.2c5.8,0.9,11.5,4,15.4,6.3l0.1,0.1c2.1,1.2,3.3,2.9,4.1,4.7l0.3,0
		c0.5-2.5,2.2-5.2,3.9-7.3c-0.2-1.1-0.2-2-0.2-2.5c0-1.5,0.4-3.1,1.2-4.6C132.7,131.1,130.6,131.1,128.3,131.2z"/>
	<path d="M240.9,168.3c1.5,5.8-4.1,8.7-7.5,10.5c-0.6,0.3-1.3,0.7-1.8,1c0.2,0.7,0.4,1.6,0.6,2.4c0.3,1.3,0.7,2.7,1.1,4.2
		c3.9-3.6,8.3-8.9,12.5-14.5c1.7-2.3,1.9-5.4,0.5-7.8l-8.9-15c-0.9-1.6-3.1-1.8-4.3-0.4c-1.1,1.3-2.3,2.6-3.4,3.7
		C237.2,157.1,240,164.9,240.9,168.3z"/>
	<path d="M259.4,186.5c-1-1.8-3.5-1.9-4.8-0.3c-6.7,8.3-14.3,16.1-21.2,19.1c-2.2,1-4.5,1.7-6.7,2.3c-2.6,2-5.8,3.1-9.1,3.1
		c-0.9,0-1.7-0.1-2.6-0.2c-2,0-7.2,4.4-8.5,6.6c-0.1,0.3-0.1,0.6-0.2,0.9c4.4-1,11.6-2.8,16.1-4.9c3-1.5,5.8-2.2,8.3-2.2
		c1,0,1.9,0.1,2.7,0.3c0.6-0.2,1.2-0.3,1.9-0.3c1.5,0,3.1,0.5,4.7,1.6c3.7,2.5,4.9,8.9,5.3,14.5c3.5-1.2,6.3-2.3,8-3.5
		c5.6-3.6,10.3-7.9,14.1-12c2.4-2.6,2.8-6.5,1-9.6L259.4,186.5z"/>
	<path d="M236.6,216.1c-2.9-2-3.1,0.5-3.1,0.5s-2.2-3.1-9.6,0.5c-7.4,3.5-21.2,6.2-21.2,6.2s-1.5-0.3-3.2-1.2c0,0,1-4.9,1.5-7
		s8.9-11,14.3-10s11.7-3.3,12.8-10.7c1.1-7.5-3.6-14.8-2.1-17.4c1.6-2.6,10.2-4.6,9.3-7.7c-0.8-3.2-3.6-10.7-11.5-14.2
		s-13-4.9-13.5-0.1s1,7.7,1,7.7s-11.7-8.2-14.8-9.9c0,0,4.6-1.1,4.5-4.7c-0.1-3.5,4.5-5.5,4.5-5.5s5.9-5.5-2.9-4.3
		c-8.8,1.2-30.7-6.8-30.7-6.8s0.9-3.7-1.3-4l-3.4-18.3c0,0-3.3-1.8-6.1-0.5c-2.7,1.3-5.3,2.3-5.3,2.3l6.2,16.2c0,0-12,0.4-15.3,0.2
		s-9,4.3-8.9,7.6c0.1,3.3,0.9,3.8,0.9,3.8s-4.7,4.9-4.8,7.5c-0.1,2.6,1,3.5,1,3.5l-10.4,0.5c0,0,0.5-3.8-2.5-5.6c-3-1.8-14-8.4-21-5
		c-7,3.4-16.3,14-12.1,27c4.2,13,8.5,10.8,8.5,10.8s-0.7,3.6,0.3,4.3c1,0.7,8.4-6.3,8.4-6.3s3.3,6.5,4.1,6.7s2.7-0.5,3.5-2.1
		c0,0,1.2,1.7,3.4,1.1c2.1-0.6,2.4-0.9,3-0.5c0.6,0.5,1.1,0.9,2.2,0.7c1.1-0.2,3.1-3.1,3.5-5.4l1.1,1.2l0.7,6.1l2.3,1.7
		c0,0,2,10.4,4.1,12.6c0,0,1.4,8,2.6,9.2c0,0-4.9,5.5-6.6,9c0,0-4.3,2.3-4.8,3.2c0,0-8.2,1.9-7.1,5.2h-4.8c-2.2-0.7-6.2-3-13-3.8
		c-6.8-0.8-17.1-0.2-21.4,2.3c-4.3,2.5-5.9,3.1-5.9,3.1s-4.1-0.1-5.6-1c-1.5-0.9-16.2-3.5-22.5,1.6c-6.4,5.1-6.6,11.5-4.9,14.9
		c1.3,2.5,1.8,3,2,3c-0.7,0-4.8,0.4-5.4,2.7c-0.7,2.4-0.5,2.7-0.7,3.5s-1,3.5,0.9,4.9c1.9,1.4,5.2-0.8,6.9-1.5s13.8,0.4,17.1,3
		c3.3,2.7,18.9,3.4,20.9,1.6c2-1.7,1.3-2.6-0.4-3.6c0,0,4.3,0.2,4.6-3.4c0,0,6.6,1.4,8.8,1.5s8-0.5,10.4-0.1c2.4,0.4,13,1.3,13,1.3
		s2.6,3.4,11.6,3.3c9-0.1,13.2-3.1,16.3-3.5c3.2-0.4,20.2-0.7,20.2-0.7s-1.1,6.1,2.1,6.1c3.2,0,15.8,0.8,22.3-0.9
		c0,0,1.6-2.3,4.3-2.3c2.7,0,2.7,0.8,2.7,0.8s2.5-0.2,3.2-0.9c0.7-0.7,0.4-4.4-0.5-5.8c0,0,1.2-3.8,0.8-4.6c0,0,3.5-1.5,3.8-4.3
		l15.8-6.3c0,0,4.3,5.5,5.3,6.3c0,0-8.4,6.3-2.3,9.8c0,0,8.1,0.7,11.8-2.7s3.3-9.4,2.1-12.6c-1.1-3.2-2.8-5.4-1.1-6.4
		s2.9-0.7,2.9-0.7S239.4,218.1,236.6,216.1z"/>
</g>
</svg>


