<svg version="1.1" id="Layer_1" xmlns="http://www.w3.org/2000/svg" xmlns:xlink="http://www.w3.org/1999/xlink" x="0px" y="0px"
	 viewBox="0 0 500 500" enable-background="new 0 0 500 500" xml:space="preserve">
<g>
	<g>
		<g>
			<path d="M430.5,189.2l-2.3-0.9l-9.2-22.2l1-2.3c27.7-64,25.8-65.9,21.2-70.6l-37-36.7c-1.5-1.5-4.2-2.6-6.5-2.6
				c-2.1,0-8.4,0-63,25.2l-2.2,1L310,70.8l-0.9-2.3C283.4,3.8,280.8,3.8,274.4,3.8h-52.3c-6.4,0-9.3,0-33.1,64.9l-0.9,2.4l-22.4,9.3
				l-2.1-0.9c-37-15.9-58.6-23.9-64.2-23.9c-2.3,0-4.9,1-6.5,2.6l-37,36.8c-4.7,4.7-6.6,6.7,22.5,69.4l1.1,2.3l-9.2,22.2l-2.2,0.9
				C2.9,215.3,2.9,217.8,2.9,224.5v52.1c0,6.7,0,9.5,65.2,33.3l2.3,0.8l9.2,22.2l-1,2.3c-27.7,64.1-26,65.8-21.3,70.6l36.9,36.8
				c1.5,1.5,4.2,2.6,6.5,2.6c2.1,0,8.4,0,63-25.2l2.2-1l22.6,9.3l0.9,2.3c25.7,64.7,28.4,64.7,34.8,64.7h52.3c6.6,0,9.3,0,33.1-64.9
				l0.9-2.4l22.5-9.2l2.1,0.9c37,15.9,58.5,23.9,64.1,23.9c2.3,0,5-1,6.5-2.6L443,404c4.7-4.7,6.6-6.7-22.6-69.3l-1.1-2.4l9.2-22.1
				l2.2-0.9c65.2-25.7,65.2-28.3,65.2-34.9v-52.1C495.8,215.6,495.8,212.9,430.5,189.2z M249.4,334c-46.7,0-84.7-37.9-84.7-84.5
				c0-46.6,38-84.5,84.7-84.5c46.7,0,84.7,37.9,84.7,84.5C334,296.1,296,334,249.4,334z"/>
		</g>
	</g>
</g>
</svg>