<svg version="1.1" id="Layer_1" xmlns="http://www.w3.org/2000/svg" xmlns:xlink="http://www.w3.org/1999/xlink" x="0px" y="0px"
	 viewBox="0 0 500 500" enable-background="new 0 0 500 500" xml:space="preserve">
<path d="M482.2,367H428v-54.1c0-7.5-2.8-10.9-10.3-10.9h-40.6c-7.5,0-13.1,3.4-13.1,10.9V367h-51.4c-7.5,0-13.6,2.9-13.6,10.4V418
	c0,7.5,6.1,11,13.6,11H364v53.5c0,7.5,5.6,11.5,13.1,11.5h40.6c7.5,0,10.3-4,10.3-11.5V429h54.2c7.5,0,9.8-3.5,9.8-11v-40.6
	C492,369.9,489.7,367,482.2,367z"/>
<g>
	<path d="M30.2,6.5h134.4c13.5,0,24.5,11,24.5,24.5v134.4c0,13.5-11,24.5-24.5,24.5H30.2c-13.5,0-24.5-11-24.5-24.5V31
		C5.7,17.5,16.6,6.5,30.2,6.5z"/>
	<path d="M259.4,6.5h134.4c13.5,0,24.5,11,24.5,24.5v134.4c0,13.5-11,24.5-24.5,24.5H259.4c-13.5,0-24.5-11-24.5-24.5V31
		C234.9,17.5,245.9,6.5,259.4,6.5z"/>
	<path d="M30.2,235.8h134.4c13.5,0,24.5,11,24.5,24.5v134.4c0,13.5-11,24.5-24.5,24.5H30.2c-13.5,0-24.5-11-24.5-24.5V260.3
		C5.7,246.7,16.6,235.8,30.2,235.8z"/>
</g>
</svg>