<svg version="1.1" id="Layer_1" xmlns="http://www.w3.org/2000/svg" xmlns:xlink="http://www.w3.org/1999/xlink" x="0px" y="0px"
	 viewBox="0 0 500 500" enable-background="new 0 0 500 500" xml:space="preserve">
<g>
	<path d="M9.3,38.5l144.8,144.7V401c0,8.2,3.9,14,11.5,17.3c2.5,1,5,1.5,7.3,1.5c5.3,0,9.7-1.9,13.2-5.6l75.1-75.1
		c3.7-3.7,5.6-8.1,5.6-13.2V183.2L411.5,38.5c6.1-5.6,7.4-12.5,4.1-20.5c-3.3-7.6-9.1-11.4-17.3-11.4H22.5c-8.2,0-14,3.8-17.3,11.4
		C1.9,26,3.2,32.8,9.3,38.5z"/>
</g>
<path d="M482.2,367H428v-54.1c0-7.5-2.8-10.9-10.3-10.9h-40.6c-7.5,0-13.1,3.4-13.1,10.9V367h-51.4c-7.5,0-13.6,2.9-13.6,10.4V418
	c0,7.5,6.1,11,13.6,11H364v53.5c0,7.5,5.6,11.5,13.1,11.5h40.6c7.5,0,10.3-4,10.3-11.5V429h54.2c7.5,0,9.8-3.5,9.8-11v-40.6
	C492,369.9,489.7,367,482.2,367z"/>
</svg>