<svg version="1.1" id="Layer_1" xmlns="http://www.w3.org/2000/svg" xmlns:xlink="http://www.w3.org/1999/xlink" x="0px" y="0px"
	 viewBox="0 0 500 500" enable-background="new 0 0 500 500" xml:space="preserve">
<g>
	<path d="M5.9,319.3c0.3,6.7,4.9,12.5,11.5,14.3L173.7,375c3.7,1,7.5,1.5,11.3,1.5c4.9,0,9.7-0.8,14.4-2.4l126-43.3
		c6.5-2.2,13.3-12.4,7.6-26.4c-4.7-8.7-4.7-8.7-21.7-13.6l-13.6,4l-89.3,30.7c-7.6,2.6-15.5,3.9-23.5,3.9c-6.2,0-12.4-0.8-18.5-2.4
		L43.3,294.3L16,304.1C9.7,306.4,5.6,312.6,5.9,319.3z"/>
	<path d="M5.9,244.2c0.3,6.7,4.9,12.5,11.5,14.3l156.3,41.4c3.7,1,7.5,1.5,11.3,1.5c4.9,0,9.7-0.8,14.4-2.4l210.9-72.6
		c6.5-2.2,10.8-8.6,10.4-15.4c-0.4-6.9-5.3-12.7-12-14.2l-26.9-6l-173.3,59.6c-7.6,2.6-15.5,3.9-23.5,3.9c-6.2,0-12.4-0.8-18.5-2.4
		L43.3,219.2L16,229C9.7,231.3,5.6,237.4,5.9,244.2z"/>
	<path d="M208.5,175.2c-7.6,2.6-15.5,3.9-23.5,3.9c-6.2,0-12.4-0.8-18.5-2.4L43.3,144L16,153.9c-6.4,2.3-10.5,8.4-10.2,15.2
		c0.3,6.7,4.9,12.5,11.5,14.3l156.3,41.4c3.7,1,7.5,1.5,11.3,1.5c4.9,0,9.7-0.8,14.4-2.4l210.9-72.6c6.5-2.2,10.8-8.6,10.4-15.5
		c-0.4-6.9-5.3-12.7-12-14.2l-26.9-6L208.5,175.2z"/>
	<path d="M17.3,108.2l156.3,41.4c3.7,1,7.5,1.5,11.3,1.5c4.9,0,9.7-0.8,14.4-2.4l210.9-72.6c6.5-2.2,10.8-8.6,10.4-15.5
		c-0.4-6.9-5.3-12.7-12-14.2L234.5,7.4c-3.2-0.7-6.4-1.1-9.7-1.1c-5.1,0-10.2,0.9-15,2.6L16,78.8C9.7,81,5.6,87.2,5.9,94
		C6.1,100.7,10.8,106.5,17.3,108.2z"/>
</g>
<path d="M482.2,367H428v-54.1c0-7.5-2.8-10.9-10.3-10.9h-40.6c-7.5,0-13.1,3.4-13.1,10.9V367h-51.4c-7.5,0-13.6,2.9-13.6,10.4V418
	c0,7.5,6.1,11,13.6,11H364v53.5c0,7.5,5.6,11.5,13.1,11.5h40.6c7.5,0,10.3-4,10.3-11.5V429h54.2c7.5,0,9.8-3.5,9.8-11v-40.6
	C492,369.9,489.7,367,482.2,367z"/>
</svg>