<?xml version="1.0" encoding="utf-8"?>
<!-- Generator: Adobe Illustrator 18.1.1, SVG Export Plug-In . SVG Version: 6.00 Build 0)  -->
<svg version="1.1" id="Layer" xmlns="http://www.w3.org/2000/svg" xmlns:xlink="http://www.w3.org/1999/xlink" x="0px" y="0px"
	 viewBox="0 0 500 500" enable-background="new 0 0 500 500" xml:space="preserve">
<path d="M485.5,381.6L350.7,154.4c3.6-11.2,4.9-18.6,4.9-18.6c-0.7,2.3-4.5,5.7-10.2,9.6L283.1,40.6c-13.8-23.2-47.4-23-60.9,0.3
	l-198,341C10.5,405.5,27.5,435,54.7,435h400.4C482.5,435,499.5,405.2,485.5,381.6z M222.4,91.5c13.5-23.3,47.2-23.5,60.9-0.3
	l39.8,67.1c-12.8,6.5-27.8,12.9-41.9,17.4c-32,10.2-85.2,1.2-116.9,15.7L222.4,91.5z M304.7,208.7c-15.6,22.2-41.5,38.9-68.8,44.1
	c-23.3,4.4-45.6,4.8-60.4,5.1c-0.9,0-1.8,0-2.6,0.1c-3.1,0.1-5.7-2.4-5.8-5.5c-0.1-3.2,2.4-5.8,5.6-5.9c0.9,0,1.7,0,2.7-0.1
	c14.4-0.3,36.2-0.7,58.5-4.9c24.1-4.6,47.6-19.8,61.5-39.4c1.8-2.5,5.1-3.2,7.7-1.6l0,0C305.7,202.3,306.5,206,304.7,208.7z
	 M122.9,407C122.9,407,122.9,407,122.9,407c-2.4,0-4.3-2.3-4.3-4.6l0-0.1c0-2.3,1.8-4.3,4.2-4.3c0,0,0,0,0.1,0
	c7.3,0,18.4-0.5,29.7-1.8c10.9-1.3,22.9-5.4,31.5-10.4c1.9-1.1,4.3-0.6,5.5,1.2l0.1,0.1c1.4,2,0.8,4.8-1.4,6
	c-9.7,5.6-22.6,10.4-34.7,11.8C141.8,406.3,130.4,407,122.9,407z M410.2,410H182.9c1.5-1,2.9-1.7,4.4-2.5
	c33.6-18.4,41.3-48.3,41.3-48.3c-1.7,3.7-24.7,10.3-51.7,12.2c-35.6,2.5-72.1,2.2-93.9,10c-5.7,2-10.9,4.7-15.7,7.8
	c-3.8-7.9-4.7-17.3-1.7-26.3c31.3-10,57.6-7.1,66.2-7.1c10.4,0,62.5,2.1,101.9-22c43.7-26.6,53.7-69.7,53.7-69.7
	c-2.3,5.4-37.2,20-67.6,27.4c-30.4,7.3-81.9,0.2-110,12.2c-5.2,2.2-12,7.9-19.4,15l23.3-40.2c33.5-13.6,61.6-9.5,70.8-9.5
	c11.4,0,68.7,3.1,112-32c19.5-15.7,32.9-35.4,41.9-53.2l102.1,172.3C454.5,379.9,437.5,410,410.2,410z M131.4,342.1
	c-0.1-2.4,1.8-4.3,4.2-4.4c0.6,0,1.2,0,1.8,0c10.6-0.1,26.5-0.4,42.9-2.6c16.5-2.3,34.6-9.4,47.3-18.5c1.9-1.3,4.4-1,5.9,0.8l0,0
	c1.5,1.9,1.2,4.7-0.8,6.1c-13.9,10-33.1,17.6-51.2,20.1c-16.9,2.3-33.2,2.6-43.9,2.7c-0.6,0-1.2,0-1.8,0
	C133.4,346.3,131.5,344.4,131.4,342.1z"/>
</svg>