<?xml version="1.0" encoding="utf-8"?>
<!-- Generator: Adobe Illustrator 18.1.1, SVG Export Plug-In . SVG Version: 6.00 Build 0)  -->
<svg version="1.1" id="Layer" xmlns="http://www.w3.org/2000/svg" xmlns:xlink="http://www.w3.org/1999/xlink" x="0px" y="0px"
	 viewBox="0 0 500 500" enable-background="new 0 0 500 500" xml:space="preserve">
<g>
	<path d="M248.3,24.8C123.3,24.8,22,126,22,251s101.3,226.3,226.3,226.3S474.5,376,474.5,251S373.2,24.8,248.3,24.8z M144.6,85.3
		c13.2-12.5,49.6-41.9,100.4-42.3c0.3,0,0.6,0,0.9,0c50.6,0,88.6,29.8,102.2,42.3c3,2.8,3.1,7.5,0.1,10.3c-2.7,2.5-6.7,2.5-9.4,0.1
		c-12.2-11-47.4-38.7-92.9-38.7c-0.3,0-0.5,0-0.8,0c-45.6,0.3-79.2,27.6-90.9,38.5c-2.6,2.5-6.7,2.5-9.4,0.1l0,0
		C141.7,92.9,141.6,88.1,144.6,85.3z M245.3,88.4c-32.2,0.2-55.9,19.6-64.3,27.5c-2,1.9-5,1.9-7,0.1c-2.3-2-2.4-5.6-0.2-7.7
		c9.5-9.1,35.4-30.1,71.5-30.4c0.2,0,0.4,0,0.7,0c35.9,0,63,21.3,72.8,30.4c2.3,2.1,2.2,5.6,0,7.7l0,0c-2,1.8-5.1,1.8-7.1,0
		C302.7,108,277.6,88.1,245.3,88.4z M277.9,125.9L277.9,125.9c-1.4,1.1-3.3,1.1-4.6-0.1c-4-3.7-13.4-10.9-27-10.7
		c-14.1,0.2-25.2,7.5-29.8,11.1c-1.4,1.1-3.4,1-4.7-0.3c-1.4-1.5-1.3-3.9,0.3-5.2c5.4-4.3,17.9-12.5,34.1-12.7
		c16.1-0.2,27.1,8,31.9,12.6C279.6,122,279.5,124.5,277.9,125.9z M401,325.4c0,11.5-9.6,21.6-21.1,21.6H299v74.5
		c0,11.5-8.3,23.5-19.8,23.5h-66.3c-11.5,0-21.9-12-21.9-23.5V347h-77.9c-11.5,0-21.1-10.1-21.1-21.6v-67.8
		c0-11.5,9.6-19.5,21.1-19.5h15.2c13.4-11,35.7-22.1,62.7-27.8V156c0-11.5,10.4-20,21.9-20h66.3c11.5,0,19.8,8.5,19.8,20v53.7
		c29,5.5,51.9,17.3,65.7,28.3h15.2c11.5,0,21.1,8,21.1,19.5V325.4z"/>
	<path d="M289.5,222.9c-8.1-0.1-11.6,13.1-2.5,16.6c8.5,3.3,36.3,4.2,36.3,18.3c0,6.7-30.7,14.5-63.6,23.4l6.7-93.4
		c0-0.1,0-0.2,0-0.3c0.5-2.4,6.1-30.5-18.5-31.1c-24.8-0.6-19.6,28.9-19.2,31c0,0.1,0,0.2,0,0.3l6.6,93.7
		c-33.2-9.1-64.3-16.9-64.3-23.6c0-14.1,27.8-15,36.3-18.3c9-3.5,5.5-16.7-2.5-16.6c-20.4,0.2-72.1,7.3-74.8,36.1
		c-2.3,25.2,58,32.4,71.5,36c1.7,0.5,4.3,1.1,7.5,1.8c-16.9,6.4-28.7,13.3-28.4,20.6c0.5,12.9,22.1,23,43.5,32.1
		c-0.1,0.1-0.3,0.2-0.4,0.3c-12.2,8.3-18.6,21.4-7.6,34.7c5.7,6.9,15.2,13.4,24.4,18.7c-7.8,4.9-15.3,8.6-19.3,10
		c-10.5,3.8-5.2,4.1-5.2,4.1s5.2,3.2,15.7-2.3c3.1-1.7,7.6-3.9,12.6-6.5l0.7,9.8c0.1,1.3,1.2,2.3,2.5,2.3c1.3,0,2.4-1,2.5-2.3
		l0.7-9.5c4.8,2.5,9,4.6,12,6.2c10.5,5.5,15.7,2.3,15.7,2.3s5.2-0.3-5.2-4.1c-4-1.4-11.5-5.2-19.3-10c9.2-5.4,18.7-11.8,24.4-18.7
		c11-13.4,4.6-26.4-7.6-34.7c-0.1-0.1-0.3-0.2-0.4-0.3c21.4-9.1,43-19.2,43.5-32.1c0.3-7.4-11.5-14.2-28.4-20.6
		c3.2-0.7,5.7-1.3,7.5-1.8c13.5-3.6,73.8-10.9,71.5-36C361.7,230.2,309.9,223.2,289.5,222.9z M216.1,322.9c0-4.9,9.2-9.5,21.3-13.7
		l2.1,29C227,334.1,216.1,329.4,216.1,322.9z M228.3,375.5c0.2-4.4,5.3-8.6,12.8-12.7l2.4,33.3C234.8,389.4,228,381.9,228.3,375.5z
		 M251.6,395.6l2.3-32.5c7.2,4,11.9,8.1,12.2,12.4C266.4,381.8,259.9,389.1,251.6,395.6z M255.7,338l2-28.6
		c11.8,4.1,20.6,8.7,20.6,13.5C278.3,329.3,267.8,333.9,255.7,338z"/>
</g>
</svg>