<svg version="1.1" id="Capa_1" xmlns="http://www.w3.org/2000/svg" xmlns:xlink="http://www.w3.org/1999/xlink" x="0px" y="0px"
	 viewBox="0 0 52.488 52.488" style="enable-background:new 0 0 52.488 52.488;" xml:space="preserve">
<g>
	<path d="M46.324,8.615c-0.111-2.072-1.259-4.713-2.296-5.924c-1.038-1.21-2.974-2.359-4.321-2.567
		c-1.349-0.207-4.108-0.148-6.164,0.133l-7.299,0.995l-7.299-0.995c-2.057-0.281-4.816-0.34-6.165-0.133
		c-1.349,0.208-3.283,1.357-4.321,2.567C7.422,3.902,6.275,6.543,6.163,8.615c-0.198,3.667,0.046,9.474,2.672,14.804
		c0,0,1.879,3.758,1.879,9.77c0,4.396,1.675,13.876,3.85,18.093c0.951,1.845,3.801,1.491,4.378-0.503
		c2.02-6.988,3.46-24.59,7.301-24.541c3.839-0.049,5.279,17.553,7.302,24.541c0.578,1.994,3.428,2.348,4.379,0.503
		c2.174-4.217,3.85-13.694,3.85-18.093c0-6.012,1.879-9.77,1.879-9.77C46.278,18.089,46.522,12.282,46.324,8.615z"/>
</g>
<g>
</g>
<g>
</g>
<g>
</g>
<g>
</g>
<g>
</g>
<g>
</g>
<g>
</g>
<g>
</g>
<g>
</g>
<g>
</g>
<g>
</g>
<g>
</g>
<g>
</g>
<g>
</g>
<g>
</g>
</svg>
